<?xml version="1.0" encoding="utf-8"?>
<!-- Generator: Adobe Illustrator 22.1.0, SVG Export Plug-In . SVG Version: 6.00 Build 0)  -->
<svg version="1.1" id="Layer_1" xmlns="http://www.w3.org/2000/svg" xmlns:xlink="http://www.w3.org/1999/xlink" x="0px" y="0px"
	 viewBox="0 0 4318.2 699.5" style="enable-background:new 0 0 4318.2 699.5;" xml:space="preserve">
<style type="text/css">
	.st0{display:none;}
	.st1{display:inline;fill:none;}
	.st2{display:inline;}
	.st3{font-family:'AmericanTypewriter';}
	.st4{font-size:110px;}
	.st5{display:inline;fill:#D4145A;}
	.st6{font-family:'AmplifyPersonalUseOnly';}
	.st7{font-size:133.12px;}
	.st8{letter-spacing:1.2;}
	.st9{display:inline;fill:none;stroke:#000000;stroke-miterlimit:10;}
	.st10{font-family:'BurbankBigCondensed-Black';}
	.st11{font-family:'GabrielWeissFriendsFont';}
	.st12{letter-spacing:11.6;}
	.st13{font-family:'ImpactLabelReversed';}
	.st14{fill:none;}
	.st15{font-size:530.6335px;}
	.st16{letter-spacing:48.9;}
	.st17{font-size:475.0137px;}
	.st18{fill:#FF2AE7;}
	.st19{font-family:'Phosphate-Inline';}
	.st20{font-size:574.8529px;}
	.st21{letter-spacing:54.7;}
	.st22{enable-background:new    ;}
	.st23{fill:#D4145A;}
	.st24{font-size:96px;}
	.st25{letter-spacing:9.3;}
</style>
<g id="Layer_1_1_" class="st0">
	<rect x="1307.1" y="170.6" class="st1" width="535.6" height="105.1"/>
	<text transform="matrix(0.848 0 0 1 1307.0815 230.4463)" class="st2 st3 st4">Where’s my</text>
	<rect x="1851.2" y="181.6" class="st1" width="230.5" height="83.1"/>
	<text transform="matrix(0.8594 0 0 1 1851.1499 235.9951)" class="st5 st6 st7 st8">MUA</text>
	<text transform="matrix(0.8594 0 0 1 1851.1499 235.9951)" class="st9 st6 st7 st8">MUA</text>
</g>
<g id="Layer_1_copy" class="st0">
	<rect x="1307.1" y="303.6" class="st1" width="535.6" height="105.1"/>
	<text transform="matrix(0.848 0 0 1 1307.0815 363.4971)" class="st2 st3 st4">Where’s my</text>
	<rect x="1851.2" y="303.6" class="st1" width="342.4" height="83.1"/>
	<text transform="matrix(0.8594 0 0 1 1851.1499 374.8979)" class="st5 st10 st7 st8">MUA</text>
	<text transform="matrix(0.8594 0 0 1 1851.1499 374.8979)" class="st9 st10 st7 st8">MUA</text>
</g>
<g id="Layer_1_copy_2" class="st0">
	<rect x="1307.1" y="447.2" class="st1" width="535.6" height="105.1"/>
	<text transform="matrix(0.848 0 0 1 1307.0815 507.0732)" class="st2 st3 st4">Where’s my</text>
	<rect x="1858" y="438.7" class="st1" width="342.4" height="83.1"/>
	<text transform="matrix(0.8594 0 0 1 1857.9297 502.5107)" class="st5 st11 st7 st12">MUA</text>
	<text transform="matrix(0.8594 0 0 1 1857.9297 502.5107)" class="st9 st11 st7 st12">MUA</text>
</g>
<g id="Layer_1_copy_3" class="st0">
	<rect x="1307.1" y="562.8" class="st1" width="535.6" height="105.1"/>
	<text transform="matrix(0.848 0 0 1 1307.0815 622.6836)" class="st2 st3 st4">Where’s my</text>
	<rect x="1851.2" y="562.8" class="st1" width="342.4" height="83.1"/>
	<text transform="matrix(0.8594 0 0 1 1851.1499 617.4092)" class="st5 st13 st7 st12">MUA</text>
</g>
<g id="Layer_1_copy_4">
	<rect x="3505.9" y="161.4" class="st14" width="812.3" height="538.1"/>
	<text transform="matrix(0.8594 0 0 1 3505.7686 443.3418)" class="st3 st15 st16">?!</text>
	<rect x="2" y="161.4" class="st14" width="2312.9" height="453.9"/>
	<text transform="matrix(0.848 0 0 1 2.0098 419.8506)" class="st3 st17">Where’s my</text>
	<rect x="2351.6" y="208.9" class="st14" width="1478.6" height="358.9"/>
	<text transform="matrix(0.8594 0 0 1 2351.4609 508.5684)" class="st18 st19 st20 st21">MUA</text>
</g>
<g id="Layer_1_copy_5" class="st0">
	<rect x="1307.1" y="822" class="st1" width="535.6" height="105.1"/>
	<text transform="matrix(0.848 0 0 1 1307.0815 881.8701)" class="st2 st3 st4">Where’s my</text>
	<rect x="1851.2" y="822" class="st1" width="342.4" height="83.1"/>
	<text transform="matrix(0.8594 0 0 1 1851.1499 887.1475)" class="st5 st7 st12" style="font-family:'SignPainter-HouseScript';">MUA</text>
	<rect x="2106.3" y="170.6" class="st1" width="188.1" height="124.6"/>
	<text transform="matrix(0.8594 0 0 1 2106.2354 221.6064)" class="st2 st3 st24 st25">???</text>
</g>
<g id="Layer_1_copy_6" class="st0">
	<rect x="2081.7" y="293.9" class="st1" width="188.1" height="124.6"/>
	<text transform="matrix(0.8594 0 0 1 2081.6592 344.9116)" class="st2 st3 st24 st25">???</text>
</g>
<g id="Layer_1_copy_10" class="st0">
	<rect x="2059.7" y="821.3" class="st1" width="188.1" height="124.6"/>
	<text transform="matrix(0.8594 0 0 1 2059.625 872.3184)" class="st2 st3 st24 st25">???</text>
</g>
<g id="Layer_1_copy_8" class="st0">
	<rect x="2099.5" y="562.8" class="st1" width="188.1" height="124.6"/>
	<text transform="matrix(0.8594 0 0 1 2099.4556 613.8438)" class="st2 st3 st24 st25">???</text>
</g>
<g id="Layer_1_copy_9" class="st0">
	<rect x="2188.5" y="437.4" class="st1" width="188.1" height="124.6"/>
	<text transform="matrix(0.8594 0 0 1 2188.4385 488.4883)" class="st2 st3 st24 st25">???</text>
</g>
</svg>
