<?xml version="1.0" encoding="utf-8"?>
<!-- Generator: Adobe Illustrator 22.1.0, SVG Export Plug-In . SVG Version: 6.00 Build 0)  -->
<svg version="1.1" xmlns="http://www.w3.org/2000/svg" xmlns:xlink="http://www.w3.org/1999/xlink" x="0px" y="0px"
	 viewBox="0 0 1920 1080" style="enable-background:new 0 0 1920 1080;" xml:space="preserve">
<style type="text/css">
	.st0{display:none;}
	.st1{display:inline;fill:none;}
	.st2{display:inline;}
	.st3{font-family:'AmericanTypewriter';}
	.st4{font-size:88px;}
	.st5{display:inline;fill:#D4145A;stroke:#000000;stroke-miterlimit:10;}
	.st6{font-family:'AmplifyPersonalUseOnly';}
	.st7{font-size:104px;}
	.st8{letter-spacing:1.8;}
	.st9{font-family:'BurbankBigCondensed-Black';}
	.st10{font-family:'GabrielWeissFriendsFont';}
	.st11{letter-spacing:10;}
	.st12{display:inline;fill:#D4145A;}
	.st13{font-family:'ImpactLabelReversed';}
	.st14{fill:none;}
	.st15{font-size:96px;}
	.st16{letter-spacing:9.1;}
	.st17{fill:#D4145A;}
	.st18{font-family:'Phosphate-Inline';}
	.st19{font-family:'SignPainter-HouseScript';}
	.st20{font-size:75px;}
	.st21{letter-spacing:7.3;}
</style>
<g id="Layer_1" class="st0">
	<rect x="148.6" y="184.6" class="st1" width="535.6" height="105.1"/>
	<text transform="matrix(1.06 0 0 1.25 148.6268 244.3986)" class="st2 st3 st4">Where’s my</text>
	<rect x="692.7" y="195.6" class="st1" width="230.5" height="83.1"/>
	<text transform="matrix(1.1 0 0 1.28 692.6949 249.9472)" class="st5 st6 st7 st8">MUA</text>
</g>
<g id="Layer_1_copy" class="st0">
	<rect x="148.6" y="317.6" class="st1" width="535.6" height="105.1"/>
	<text transform="matrix(1.06 0 0 1.25 148.6268 377.4494)" class="st2 st3 st4">Where’s my</text>
	<rect x="692.7" y="317.6" class="st1" width="342.4" height="83.1"/>
	<text transform="matrix(1.1 0 0 1.28 692.6949 388.8498)" class="st5 st9 st7 st8">MUA</text>
</g>
<g id="Layer_1_copy_2" class="st0">
	<rect x="148.6" y="461.2" class="st1" width="535.6" height="105.1"/>
	<text transform="matrix(1.06 0 0 1.25 148.6268 521.0257)" class="st2 st3 st4">Where’s my</text>
	<rect x="699.5" y="452.7" class="st1" width="342.4" height="83.1"/>
	<text transform="matrix(1.1 0 0 1.28 699.4746 516.4627)" class="st5 st10 st7 st11">MUA</text>
</g>
<g id="Layer_1_copy_3" class="st0">
	<rect x="148.6" y="576.8" class="st1" width="535.6" height="105.1"/>
	<text transform="matrix(1.06 0 0 1.25 148.6268 636.6359)" class="st2 st3 st4">Where’s my</text>
	<rect x="692.7" y="576.8" class="st1" width="342.4" height="83.1"/>
	<text transform="matrix(1.1 0 0 1.28 692.6949 631.361)" class="st12 st13 st7 st11">MUA</text>
</g>
<g id="Layer_1_copy_4">
	<rect x="1150.8" y="278.7" class="st14" width="188.1" height="124.6"/>
	<text transform="matrix(1.1 0 0 1.28 1150.7681 343.9789)" class="st3 st15 st16">?!</text>
	<rect x="339.4" y="278.7" class="st14" width="535.6" height="105.1"/>
	<text transform="matrix(1.06 0 0 1.25 339.3943 338.5392)" class="st3 st4">Where’s my</text>
	<rect x="883.5" y="289.7" class="st14" width="342.4" height="83.1"/>
	<text transform="matrix(1.1 0 0 1.28 883.4625 359.0839)" class="st17 st18 st7 st11">MUA</text>
</g>
<g id="Layer_1_copy_5" class="st0">
	<rect x="148.6" y="836" class="st1" width="535.6" height="105.1"/>
	<text transform="matrix(1.06 0 0 1.25 148.6268 895.8228)" class="st2 st3 st4">Where’s my</text>
	<rect x="692.7" y="836" class="st1" width="342.4" height="83.1"/>
	<text transform="matrix(1.1 0 0 1.28 692.6949 901.0991)" class="st12 st19 st7 st11">MUA</text>
	<rect x="947.8" y="184.6" class="st1" width="188.1" height="124.6"/>
	<text transform="matrix(1.1 0 0 1.28 947.7803 235.5585)" class="st2 st3 st20 st21">???</text>
</g>
<g id="Layer_1_copy_6" class="st0">
	<rect x="923.2" y="307.9" class="st1" width="188.1" height="124.6"/>
	<text transform="matrix(1.1 0 0 1.28 923.204 358.8636)" class="st2 st3 st20 st21">???</text>
</g>
<g id="Layer_1_copy_10" class="st0">
	<rect x="901.2" y="835.3" class="st1" width="188.1" height="124.6"/>
	<text transform="matrix(1.1 0 0 1.28 901.17 886.2704)" class="st2 st3 st20 st21">???</text>
</g>
<g id="Layer_1_copy_8" class="st0">
	<rect x="941" y="576.8" class="st1" width="188.1" height="124.6"/>
	<text transform="matrix(1.1 0 0 1.28 941.0005 627.7958)" class="st2 st3 st20 st21">???</text>
</g>
<g id="Layer_1_copy_9" class="st0">
	<rect x="1030" y="451.4" class="st1" width="188.1" height="124.6"/>
	<text transform="matrix(1.1 0 0 1.28 1029.9836 502.4404)" class="st2 st3 st20 st21">???</text>
</g>
</svg>
